<svg xmlns="http://www.w3.org/2000/svg" width="11.718" height="9.094" viewBox="0 0 11.718 9.094">
  <metadata><?xpacket begin="﻿" id="W5M0MpCehiHzreSzNTczkc9d"?>
<x:xmpmeta xmlns:x="adobe:ns:meta/" x:xmptk="Adobe XMP Core 5.6-c142 79.160924, 2017/07/13-01:06:39        ">
   <rdf:RDF xmlns:rdf="http://www.w3.org/1999/02/22-rdf-syntax-ns#">
      <rdf:Description rdf:about=""/>
   </rdf:RDF>
</x:xmpmeta>
                                                                                                    
                                                                                                    
                                                                                                    
                                                                                                    
                                                                                                    
                                                                                                    
                                                                                                    
                                                                                                    
                                                                                                    
                                                                                                    
                                                                                                    
                                                                                                    
                                                                                                    
                                                                                                    
                                                                                                    
                                                                                                    
                                                                                                    
                                                                                                    
                                                                                                    
                                                                                                    
                           
<?xpacket end="w"?></metadata>
<defs>
    <style>
      .cls-1 {
        fill: #818589;
        fill-rule: evenodd;
      }
    </style>
  </defs>
  <path id="Rounded_Rectangle_1_copy_7" data-name="Rounded Rectangle 1 copy 7" class="cls-1" d="M174.887,24.436h6.853a0.91,0.91,0,0,1,.91.91v0.008a0.91,0.91,0,0,1-.91.91h-6.853a0.91,0.91,0,0,1-.91-0.91V25.346A0.91,0.91,0,0,1,174.887,24.436Zm0.078,3.641h6.678a0.959,0.959,0,0,1,1,.91h0a0.959,0.959,0,0,1-1,.91h-6.678a0.959,0.959,0,0,1-1-.91h0A0.959,0.959,0,0,1,174.965,28.077Zm0-7.279h6.678a0.959,0.959,0,0,1,1,.91h0a0.959,0.959,0,0,1-1,.91h-6.678a0.959,0.959,0,0,1-1-.91h0A0.959,0.959,0,0,1,174.965,20.8Z" transform="translate(-170.938 -20.813)"/>
  <path id="Rounded_Rectangle_1_copy_8" data-name="Rounded Rectangle 1 copy 8" class="cls-1" d="M171.86,24.436h0.211a0.91,0.91,0,0,1,.91.91v0.008a0.91,0.91,0,0,1-.91.91H171.86a0.91,0.91,0,0,1-.91-0.91V25.346A0.91,0.91,0,0,1,171.86,24.436Zm0.1,3.641h0a0.959,0.959,0,0,1,1,.91h0a0.959,0.959,0,0,1-1,.91h0a0.959,0.959,0,0,1-1-.91h0A0.959,0.959,0,0,1,171.96,28.077Zm0-7.279h0a0.959,0.959,0,0,1,1,.91h0a0.959,0.959,0,0,1-1,.91h0a0.959,0.959,0,0,1-1-.91h0A0.959,0.959,0,0,1,171.96,20.8Z" transform="translate(-170.938 -20.813)"/>
</svg>
