<svg xmlns="http://www.w3.org/2000/svg" width="16.875" height="17.563" viewBox="0 0 16.875 17.563">
  <metadata><?xpacket begin="﻿" id="W5M0MpCehiHzreSzNTczkc9d"?>
<x:xmpmeta xmlns:x="adobe:ns:meta/" x:xmptk="Adobe XMP Core 5.6-c142 79.160924, 2017/07/13-01:06:39        ">
   <rdf:RDF xmlns:rdf="http://www.w3.org/1999/02/22-rdf-syntax-ns#">
      <rdf:Description rdf:about=""/>
   </rdf:RDF>
</x:xmpmeta>
                                                                                                    
                                                                                                    
                                                                                                    
                                                                                                    
                                                                                                    
                                                                                                    
                                                                                                    
                                                                                                    
                                                                                                    
                                                                                                    
                                                                                                    
                                                                                                    
                                                                                                    
                                                                                                    
                                                                                                    
                                                                                                    
                                                                                                    
                                                                                                    
                                                                                                    
                                                                                                    
                           
<?xpacket end="w"?></metadata>
<defs>
    <style>
      .cls-1 {
        fill: #7c7f82;
        fill-rule: evenodd;
      }
    </style>
  </defs>
  <path class="cls-1" d="M538.647,26.049l-0.325-.452a1.1,1.1,0,0,1-.01-1.259l0.317-.456a1.089,1.089,0,0,0-.367-1.574l-0.483-.265a1.088,1.088,0,0,1-.547-1.13l0.092-.552a1.072,1.072,0,0,0-1-1.255l-0.55-.025A1.062,1.062,0,0,1,534.8,18.3l-0.152-.538a1.053,1.053,0,0,0-1.439-.689l-0.5.222a1.047,1.047,0,0,1-1.21-.272l-0.367-.416a1.05,1.05,0,0,0-1.591.011l-0.359.423a1.051,1.051,0,0,1-1.2.291l-0.508-.212a1.059,1.059,0,0,0-1.429.714l-0.144.538a1.05,1.05,0,0,1-.956.8l-0.55.032a1.071,1.071,0,0,0-.981,1.27l0.1,0.549a1.084,1.084,0,0,1-.529,1.137l-0.48.273a1.088,1.088,0,0,0-.342,1.578l0.325,0.452a1.1,1.1,0,0,1,.01,1.259l-0.317.455a1.089,1.089,0,0,0,.367,1.575l0.483,0.265a1.087,1.087,0,0,1,.546,1.13l-0.1.549a1.072,1.072,0,0,0,1,1.255l0.55,0.025a1.064,1.064,0,0,1,.974.778l0.151,0.538a1.054,1.054,0,0,0,1.439.689l0.5-.222a1.049,1.049,0,0,1,1.209.269l0.367,0.416a1.05,1.05,0,0,0,1.591-.011l0.36-.423a1.051,1.051,0,0,1,1.2-.291l0.507,0.212a1.058,1.058,0,0,0,1.429-.714l0.144-.538a1.071,1.071,0,0,1,.963-0.793l0.551-.032a1.071,1.071,0,0,0,.98-1.27l-0.1-.549a1.084,1.084,0,0,1,.529-1.137l0.48-.273A1.086,1.086,0,0,0,538.647,26.049ZM530.4,30.693a5.664,5.664,0,1,1,5.57-5.663A5.617,5.617,0,0,1,530.4,30.693Zm-0.712-5.512-0.494-.506a0.748,0.748,0,0,0-1.069,0h0a0.779,0.779,0,0,0,0,1.087l0.494,0.506,0.55,0.559a0.726,0.726,0,0,0,1.04,0l0.551-.556,1.918-1.94a0.778,0.778,0,0,0,0-1.087h0a0.748,0.748,0,0,0-1.069,0Z" transform="translate(-521.969 -16.25)"/>
</svg>
