<svg xmlns="http://www.w3.org/2000/svg" width="14.938" height="15.594" viewBox="0 0 14.938 15.594">
  <metadata><?xpacket begin="﻿" id="W5M0MpCehiHzreSzNTczkc9d"?>
<x:xmpmeta xmlns:x="adobe:ns:meta/" x:xmptk="Adobe XMP Core 5.6-c142 79.160924, 2017/07/13-01:06:39        ">
   <rdf:RDF xmlns:rdf="http://www.w3.org/1999/02/22-rdf-syntax-ns#">
      <rdf:Description rdf:about=""/>
   </rdf:RDF>
</x:xmpmeta>
                                                                                                    
                                                                                                    
                                                                                                    
                                                                                                    
                                                                                                    
                                                                                                    
                                                                                                    
                                                                                                    
                                                                                                    
                                                                                                    
                                                                                                    
                                                                                                    
                                                                                                    
                                                                                                    
                                                                                                    
                                                                                                    
                                                                                                    
                                                                                                    
                                                                                                    
                                                                                                    
                           
<?xpacket end="w"?></metadata>
<defs>
    <style>
      .cls-1 {
        fill: #7c7f82;
        fill-rule: evenodd;
      }
    </style>
  </defs>
  <path id="Forma_1" data-name="Forma 1" class="cls-1" d="M398.741,25.829a6.741,6.741,0,0,1-13.4.013h-0.662a0.52,0.52,0,0,1-.453-0.781L385.7,22.51a0.524,0.524,0,0,1,.906,0l1.481,2.552a0.52,0.52,0,0,1-.453.781H387.06a5.013,5.013,0,1,0,2.2-4.868,0.892,0.892,0,0,1-1.191-.159,0.848,0.848,0,0,1,.2-1.226A6.709,6.709,0,0,1,391.2,18.5V17.529h-0.687a0.426,0.426,0,0,1-.427-0.425V16.675a0.426,0.426,0,0,1,.427-0.425H393.7a0.426,0.426,0,0,1,.427.425V17.1a0.426,0.426,0,0,1-.427.425h-0.756v0.977A6.719,6.719,0,0,1,398.741,25.829Zm0.221-6.437-1.289-1.185a0.429,0.429,0,0,0-.6.024l-0.341.367a0.424,0.424,0,0,0,.024.6l1.289,1.186a0.429,0.429,0,0,0,.6-0.024l0.341-.367A0.424,0.424,0,0,0,398.962,19.392Zm-6.944,1.628v4.16h4.139A4.051,4.051,0,0,0,392.018,21.02Z" transform="translate(-384.156 -16.25)"/>
</svg>
