<svg xmlns="http://www.w3.org/2000/svg" width="14.937" height="12.313" viewBox="0 0 14.937 12.313">
  <metadata><?xpacket begin="﻿" id="W5M0MpCehiHzreSzNTczkc9d"?>
<x:xmpmeta xmlns:x="adobe:ns:meta/" x:xmptk="Adobe XMP Core 5.6-c142 79.160924, 2017/07/13-01:06:39        ">
   <rdf:RDF xmlns:rdf="http://www.w3.org/1999/02/22-rdf-syntax-ns#">
      <rdf:Description rdf:about=""/>
   </rdf:RDF>
</x:xmpmeta>
                                                                                                    
                                                                                                    
                                                                                                    
                                                                                                    
                                                                                                    
                                                                                                    
                                                                                                    
                                                                                                    
                                                                                                    
                                                                                                    
                                                                                                    
                                                                                                    
                                                                                                    
                                                                                                    
                                                                                                    
                                                                                                    
                                                                                                    
                                                                                                    
                                                                                                    
                                                                                                    
                           
<?xpacket end="w"?></metadata>
<defs>
    <style>
      .cls-1 {
        fill: #fff;
        fill-rule: evenodd;
        opacity: 0.4;
      }
    </style>
  </defs>
  <path id="Forma_1_copy_17" data-name="Forma 1 copy 17" class="cls-1" d="M289.879,23.861l-0.17-.514a0.771,0.771,0,0,0-.67-0.514h-0.618c-0.464-1.343-1.032-2.965-1.2-3.345A2.327,2.327,0,0,0,285.7,18.5a18.2,18.2,0,0,0-6.532,0,2.6,2.6,0,0,0-1.554,1.013c-0.136.27-.713,1.938-1.182,3.319h-0.606a0.769,0.769,0,0,0-.669.514l-0.171.514a0.354,0.354,0,0,0,.328.514h0.6l-0.125.371a2.263,2.263,0,0,0-.082.572V30a0.537,0.537,0,0,0,.528.545h1.935A0.537,0.537,0,0,0,278.693,30V29h7.476v1a0.537,0.537,0,0,0,.528.545h1.935A0.536,0.536,0,0,0,289.159,30V25.317a2.214,2.214,0,0,0-.082-0.571l-0.127-.371h0.6A0.354,0.354,0,0,0,289.879,23.861Zm-11.2,2.869h-0.8c-0.717,0-1.432-.1-1.432-0.568V25.593a0.5,0.5,0,0,1,.641-0.568,4.72,4.72,0,0,1,1.393.48,1.326,1.326,0,0,1,.979.746C279.464,26.579,279.285,26.73,278.682,26.73Zm-1.115-3.69a18.908,18.908,0,0,1,.916-2.9c0.075-.193.149-0.789,3.948-0.789s3.889,0.68,3.9.688a25.506,25.506,0,0,1,.954,3,16.139,16.139,0,0,1-4.853.564A16.29,16.29,0,0,1,277.567,23.04Zm7.831,3.21a1.323,1.323,0,0,1,.979-0.746,4.745,4.745,0,0,1,1.393-.48,0.5,0.5,0,0,1,.641.568v0.568h0c0,0.47-.715.568-1.432,0.568h-0.8C285.577,26.73,285.4,26.579,285.4,26.25Z" transform="translate(-274.938 -18.219)"/>
</svg>
